<?xml version="1.0" encoding="utf-8"?>
<!-- Generator: Adobe Illustrator 20.1.0, SVG Export Plug-In . SVG Version: 6.00 Build 0)  -->
<svg version="1.1" id="Layer_1" xmlns="http://www.w3.org/2000/svg" xmlns:xlink="http://www.w3.org/1999/xlink" x="0px" y="0px"
	 viewBox="0 0 60 60" style="enable-background:new 0 0 60 60;" xml:space="preserve">
<style type="text/css">
	.st0{fill:#FFFFFF;}
</style>
<title></title>
<g>
	<circle cx="30" cy="30" r="30"/>
</g>
<g>
	<path class="st0" d="M28.5,24.8c1.2,0,2.4,0,3.6,0c0.3,0,0.5,0,0.8,0c0.5,0,0.8,0.3,1,0.7c0.2,0.5,0.3,1,0.2,1.5
		c-0.1,0.6-0.2,1.2-0.3,1.7c-0.2,1.3-0.5,2.7-0.7,4c-0.2,1.3-0.5,2.7-0.7,4c-0.2,1.1-0.4,2.1-0.5,3.2c-0.1,0.5,0,0.9,0.2,1.4
		c0.2,0.5,0.6,0.8,1.2,0.8c0.4,0,0.8-0.1,1.2-0.3c0.4-0.2,0.7-0.4,1.1-0.6c0.1-0.1,0.3-0.2,0.5-0.2c0.4-0.2,0.9,0.1,0.9,0.5
		c0,0.1,0,0.3-0.1,0.4c-0.1,0.3-0.3,0.6-0.6,0.8c-1,1-2.1,1.7-3.4,2.1c-0.6,0.2-1.2,0.3-1.8,0.3c-0.6,0-1.3,0-1.9,0
		c-0.6,0-1.3-0.1-1.8-0.4c-1.3-0.7-2.2-1.6-2.5-3.1c-0.1-0.5-0.1-1,0-1.4c0.2-1.3,0.4-2.6,0.7-3.9c0.2-1.4,0.5-2.8,0.7-4.2
		c0.2-1.2,0.4-2.5,0.6-3.7c0-0.2,0-0.5,0-0.7c-0.1-0.4-0.3-0.6-0.6-0.8c-0.3-0.1-0.5-0.2-0.8-0.2c-0.5,0-1-0.2-1.4-0.4
		c-0.3-0.1-0.5-0.4-0.5-0.7c0-0.4,0.1-0.7,0.4-0.8c0.2-0.1,0.4-0.1,0.6-0.2c0.2,0,0.4,0,0.5,0C25.9,24.8,27.2,24.8,28.5,24.8
		C28.5,24.8,28.5,24.8,28.5,24.8z"/>
	<path class="st0" d="M30.9,23c-2,0-3.6-1.4-4-3.2c-0.4-2.2,0.9-4.3,3.1-4.8c1.5-0.3,2.8,0.2,3.9,1.4c0.7,0.8,1,1.8,0.9,2.8
		c-0.1,2-1.7,3.5-3.4,3.7C31.2,23,31,23,30.9,23z"/>
</g>
</svg>
