<svg height="60" viewBox="0 0 60 60" width="60" xmlns="http://www.w3.org/2000/svg"><title/><g fill="none" fill-rule="evenodd"><path d="M30 60c16.569 0 30-13.431 30-30C60 13.431 46.569 0 30 0 13.431 0 0 13.431 0 30c0 16.569 13.431 30 30 30z" fill="#000"/><path d="M28.846 24.347a8.078 8.078 0 0 1 13.786 4.66 4.62 4.62 0 0 1 5.83 4.455c0 2.15-1.471 3.957-3.462 4.47v.145H22.5h6.346v-13.73zM13.27 36.923c.319 0 .577-1.55.577-3.461 0-1.912-.258-3.462-.577-3.462-.318 0-.577 1.55-.577 3.462 0 1.911.259 3.461.577 3.461zm2.308 1.154c.319 0 .577-2.066.577-4.615 0-2.55-.258-4.616-.577-4.616-.319 0-.577 2.067-.577 4.616 0 2.549.258 4.615.577 4.615zm2.308 0c.318 0 .577-2.066.577-4.615 0-2.55-.259-4.616-.577-4.616-.319 0-.577 2.067-.577 4.616 0 2.549.258 4.615.577 4.615zm2.307 0c.319 0 .577-2.583.577-5.77 0-3.186-.258-5.769-.577-5.769-.318 0-.577 2.583-.577 5.77 0 3.186.259 5.769.577 5.769zm2.308 0c.319 0 .577-2.841.577-6.346s-.258-6.346-.577-6.346c-.319 0-.577 2.84-.577 6.346 0 3.505.258 6.346.577 6.346zm2.308 0c.318 0 .577-3.1.577-6.923 0-3.824-.259-6.923-.577-6.923-.319 0-.577 3.1-.577 6.923s.258 6.923.577 6.923zm2.307 0c.319 0 .577-3.1.577-6.923 0-3.824-.258-6.923-.577-6.923-.318 0-.577 3.1-.577 6.923s.259 6.923.577 6.923z" fill="#FFF"/></g></svg>